<svg width="45" height="29" viewBox="0 0 45 29" fill="none" xmlns="http://www.w3.org/2000/svg">
<path d="M0 2.0749C0 0.928964 0.928964 0 2.0749 0H42.9251C44.071 0 45 0.928964 45 2.0749C45 3.22083 44.071 4.1498 42.9251 4.1498H2.0749C0.928963 4.1498 0 3.22083 0 2.0749Z" fill="white"/>
<path d="M0 26.9251C0 25.7792 0.928964 24.8502 2.0749 24.8502H42.9251C44.071 24.8502 45 25.7792 45 26.9251C45 28.0711 44.071 29 42.9251 29H2.0749C0.928963 29 0 28.0711 0 26.9251Z" fill="white"/>
<path d="M0 14.5C0 13.3541 0.928964 12.4251 2.0749 12.4251H42.9251C44.071 12.4251 45 13.3541 45 14.5C45 15.6459 44.071 16.5749 42.9251 16.5749H2.0749C0.928963 16.5749 0 15.6459 0 14.5Z" fill="white"/>
</svg>
